<svg xmlns="http://www.w3.org/2000/svg" viewBox="0 0 24 24"><title>50.Networking</title><g id="_50.Networking" data-name="50.Networking"><path d="M17.5,19H15V17h2.5a4.5,4.5,0,1,0-1.245-8.821l-1.33.383.054-1.383a1.881,1.881,0,0,1,.02-.2A4,4,0,0,0,7.075,6.26l-.13.7-.7.106A5,5,0,0,0,7,17H9v2H7A7,7,0,0,1,5.275,5.223a6,6,0,0,1,11.646.8A6.5,6.5,0,1,1,17.5,19Z"/><rect x="11" y="17" width="2" height="2"/><rect x="11" y="13" width="2" height="2"/><rect x="11" y="9" width="2" height="2"/><rect x="11" y="21" width="2" height="2"/><rect x="7" y="21" width="2" height="2"/><rect x="3" y="21" width="2" height="2"/><rect x="15" y="21" width="2" height="2"/><rect x="19" y="21" width="2" height="2"/></g></svg>