<?xml version="1.0" encoding="iso-8859-1"?>
<!-- Generator: Adobe Illustrator 23.0.4, SVG Export Plug-In . SVG Version: 6.00 Build 0)  -->
<svg version="1.1" xmlns="http://www.w3.org/2000/svg" xmlns:xlink="http://www.w3.org/1999/xlink" x="0px" y="0px"
	 viewBox="0 0 64 64" style="enable-background:new 0 0 64 64;" xml:space="preserve">
<g id="wifi-01">
	<g>
		<path style="fill:#354047;" d="M63.122,20.255c-4.241-3.661-9.023-6.511-14.224-8.483C43.536,9.732,37.835,8.692,32,8.692
			c-5.849,0-11.536,1.04-16.912,3.08c-5.187,1.972-9.969,4.809-14.237,8.483C0.311,20.687,0,21.322,0,21.984
			c0,0.581,0.216,1.094,0.608,1.499l4.444,4.566c0.135,0.135,0.284,0.23,0.459,0.311c0.635,0.257,1.459,0.189,2.04-0.189
			c0.041-0.027,0.081-0.068,0.122-0.095c3.012-2.566,6.308-4.62,9.834-6.105c4.593-1.932,9.469-2.918,14.494-2.918
			c5.025,0,9.901,0.986,14.48,2.918c3.526,1.486,6.794,3.498,9.793,6.065c0.459,0.338,0.932,0.5,1.405,0.5
			c0.405,0,0.811-0.122,1.283-0.459c0.068-0.04,0.122-0.095,0.189-0.162l4.174-4.377C63.77,23.092,64,22.565,64,21.984
			C64,21.322,63.689,20.687,63.122,20.255z M57.597,25.618c-3.039-2.539-6.43-4.606-10.063-6.133
			C42.617,17.405,37.39,16.351,32,16.351c-5.39,0-10.617,1.054-15.534,3.134c-3.58,1.513-6.957,3.566-10.036,6.106l-3.471-3.566
			c3.904-3.323,8.307-5.916,13.089-7.727c5.065-1.932,10.428-2.904,15.953-2.904c5.511,0,10.874,0.973,15.939,2.904
			c4.755,1.797,9.145,4.39,13.103,7.727L57.597,25.618z"/>
		<path style="fill:#354047;" d="M42.32,27.914c-6.565-2.377-14.075-2.377-20.64,0c-3.188,1.162-6.133,2.837-8.794,5.011
			c-0.432,0.365-0.702,0.824-0.783,1.337c-0.04,0.216-0.014,0.446,0.054,0.648c0.081,0.23,0.257,0.635,0.446,1.013
			c0.054,0.122,0.135,0.23,0.23,0.324l4.349,4.444c0.135,0.149,0.311,0.257,0.5,0.324c0.689,0.243,1.513,0.122,2.067-0.297
			c3.526-2.769,7.767-4.241,12.252-4.241c4.485,0,8.699,1.459,12.238,4.228c0.378,0.284,0.851,0.446,1.324,0.446
			c0.257,0,0.513-0.04,0.756-0.135c0.189-0.068,0.351-0.176,0.5-0.324l4.62-4.782c0.095-0.081,0.162-0.189,0.23-0.297
			c0.162-0.311,0.257-0.662,0.257-1.013c0-0.608-0.27-1.202-0.783-1.648C48.466,30.764,45.494,29.076,42.32,27.914z M45.44,38.234
			c-3.89-2.918-8.523-4.458-13.44-4.458c-4.903,0-9.537,1.54-13.454,4.458l-3.499-3.58c2.283-1.796,4.822-3.201,7.551-4.201
			c5.984-2.161,12.832-2.161,18.789,0c2.715,0.986,5.255,2.404,7.537,4.187L45.44,38.234z"/>
	</g>
	<path style="fill:#FEBA00;" d="M38.943,45.393c-2.04-1.337-4.458-2.04-6.97-2.04c-2.485,0-4.863,0.689-6.957,2.053
		c-0.567,0.405-0.919,1.067-0.919,1.756c0,0.432,0.122,0.837,0.365,1.189c0.054,0.095,0.122,0.176,0.203,0.257l5.687,5.943
		c0.567,0.635,1.216,0.756,1.648,0.756c0.608,0,1.175-0.257,1.567-0.675l5.889-6.241c0.122-0.108,0.203-0.243,0.27-0.392
		c0.108-0.27,0.162-0.554,0.162-0.837C39.889,46.474,39.551,45.812,38.943,45.393z M32,52.363l-4.876-5.079
		c2.945-1.621,6.835-1.594,9.699-0.027L32,52.363z"/>
</g>
<g id="Layer_1">
</g>
</svg>
