<svg xmlns="http://www.w3.org/2000/svg" viewBox="0 0 24 24"><title>Antena</title><g id="Antena"><path d="M8.46,9.54A1,1,0,0,0,9.88,8.12a3,3,0,0,1,0-4.24,1,1,0,0,0,0-1.42C8.27.86,5.18,6.25,8.46,9.54Z"/><path d="M14.12,8.12a1,1,0,0,0,0,1.42c1.61,1.6,4.71-3.78,1.42-7.08a1,1,0,0,0-1.42,1.42A3,3,0,0,1,14.12,8.12Z"/><path d="M7.76,11.66a1,1,0,0,0,0-1.42,6,6,0,0,1,0-8.48A1,1,0,0,0,6.34.34C1.26,5.42,5.88,13.53,7.76,11.66Z"/><path d="M17.66.34a1,1,0,0,0-1.42,1.42,6,6,0,0,1,0,8.48,1,1,0,0,0,1.42,1.42A8,8,0,0,0,17.66.34Z"/><path d="M13.37,7.45a2,2,0,1,0-2.74,0L7,22.77A1,1,0,0,0,9,23.23L9.73,20h4.54L15,23.23A1,1,0,0,0,17,22.77ZM12.62,13H11.38L12,10.37ZM10.2,18l.71-3h2.18l.71,3Z"/></g></svg>